<svg width="19" height="18" viewBox="0 0 19 18" fill="none" xmlns="http://www.w3.org/2000/svg">
<path d="M13.9917 8.84901C13.9917 12.4443 12.0263 15.0002 9.60032 15.0002C7.17434 15.0002 5.20898 12.4443 5.20898 8.84901C5.20898 6.37815 7.17434 4.375 9.60032 4.375C12.0263 4.375 13.9917 6.37815 13.9917 8.84901Z" fill="#40596B"/>
<path d="M11.19 8.20869C11.353 8.41184 11.4734 8.97877 11.4734 8.97877C11.4734 8.97877 10.7435 8.44964 9.52225 8.20869C8.63879 8.03389 7.57107 6.6709 7.57107 6.6709C7.35375 9.15594 5.67894 9.64491 5.24902 9.73231C5.5443 12.8551 7.37737 15 9.6002 15C11.9246 15 13.8262 12.6544 13.9797 9.29531C13.1955 8.58192 11.19 8.20869 11.19 8.20869Z" fill="#FFD15C"/>
<path d="M5.26781 8.11182H4.40089C3.95915 8.11182 3.6001 8.4756 3.6001 8.92678V10.1362C3.6001 10.5874 3.95915 10.9512 4.40089 10.9512H5.45207C5.2938 10.3039 5.20876 9.6 5.20876 8.84882C5.20876 8.59607 5.22766 8.3504 5.26781 8.11182Z" fill="#334A5E"/>
<path d="M14.7992 8.11182H13.9323C13.9701 8.3504 13.9914 8.59607 13.9914 8.84882C13.9914 9.6 13.9063 10.3039 13.748 10.9512H14.7992C15.241 10.9512 15.6 10.5874 15.6 10.1362V8.92678C15.6 8.4756 15.2433 8.11182 14.7992 8.11182Z" fill="#334A5E"/>
<path d="M14.7995 10.9509H14.4003V12.0754H10.668V12.8903H15.1987V10.8423C15.0829 10.9108 14.9459 10.9509 14.7995 10.9509Z" fill="#F2F2F2"/>
<path d="M10.7859 13.1813H9.0379C9.00247 13.1813 8.97412 13.1529 8.97412 13.1175V11.8514C8.97412 11.8159 9.00247 11.7876 9.0379 11.7876H10.7859C10.8214 11.7876 10.8497 11.8159 10.8497 11.8514V13.1175C10.8497 13.1529 10.8214 13.1813 10.7859 13.1813Z" fill="#40596B"/>
<path d="M9.92115 3H9.15107C6.31879 3 4.01564 5.34094 4.00146 8.22047C4.11958 8.15196 4.25422 8.11181 4.40068 8.11181H4.80461C4.87548 5.73071 6.79832 3.81496 9.15343 3.81496H9.92115C12.2763 3.81496 14.1991 5.73071 14.27 8.11181H14.8015C14.896 8.11181 14.9857 8.12834 15.0708 8.15905C15.0235 5.30787 12.7322 3 9.92115 3Z" fill="#F2F2F2"/>
</svg>
