<svg width="142" height="42" viewBox="0 0 142 42" fill="none" xmlns="http://www.w3.org/2000/svg">
<path d="M20.9182 18.4075L14.2023 11.68C14.134 11.6116 14.0233 11.6116 13.955 11.68L1.74183 23.9142C1.67354 23.9826 1.67354 24.0935 1.74183 24.1619L8.45772 30.8894C8.52602 30.9578 8.63674 30.9578 8.70503 30.8894L20.9182 18.6552C20.9865 18.5868 20.9865 18.4759 20.9182 18.4075Z" fill="#2F80ED"/>
<path d="M34.2003 30.8554L40.8478 24.1965C40.9349 24.1091 40.9349 23.9675 40.8478 23.8802L28.703 11.7145C28.6159 11.6272 28.4745 11.6272 28.3873 11.7145L21.7398 18.3735C21.6527 18.4608 21.6527 18.6024 21.7398 18.6897L33.8846 30.8554C33.9717 30.9427 34.1131 30.9427 34.2003 30.8554Z" fill="#2F80ED"/>
<path d="M27.9713 30.4269L21.4124 23.8566C21.3569 23.8011 21.2671 23.8011 21.2116 23.8566L14.6527 30.4269C14.5973 30.4824 14.5973 30.5725 14.6527 30.628L21.2116 37.1982C21.2671 37.2538 21.3569 37.2538 21.4124 37.1982L27.9713 30.628C28.0268 30.5725 28.0268 30.4824 27.9713 30.4269Z" fill="#13335F"/>
<path d="M27.9713 11.1852L21.4124 4.61495C21.3569 4.55942 21.2671 4.55942 21.2116 4.61495L14.6527 11.1852C14.5973 11.2407 14.5973 11.3308 14.6527 11.3863L21.2116 17.9566C21.2671 18.0121 21.3569 18.0121 21.4124 17.9566L27.9713 11.3863C28.0268 11.3308 28.0268 11.2407 27.9713 11.1852Z" fill="#13335F"/>
<path d="M57.8904 25.8703H51.2542L49.7026 30H46.8142L53.3071 13.2902H54.5723C55.4317 13.2902 56.0284 13.7119 56.3626 14.5553L62.3304 30H59.4181L57.8904 25.8703ZM52.0419 23.5309H57.1026L54.5962 16.7515H54.5723L52.0419 23.5309ZM66.6582 30.191C65.1941 30.191 64.0165 29.7692 63.1253 28.9258C62.25 28.0823 61.8123 26.9684 61.8123 25.5838V22.5761C61.8123 21.653 62.0113 20.8414 62.4091 20.1412C62.807 19.4251 63.3719 18.876 64.104 18.4941C64.836 18.0962 65.6795 17.8973 66.6343 17.8973H68.544C69.9126 17.8973 71.0107 18.2952 71.8382 19.0909C72.6817 19.8707 73.1034 20.9051 73.1034 22.1941H70.406C70.406 21.6212 70.2309 21.1597 69.8808 20.8096C69.5466 20.4436 69.101 20.2606 68.544 20.2606H66.6582C66.0375 20.2606 65.5283 20.4913 65.1304 20.9528C64.7485 21.4143 64.5575 22.0111 64.5575 22.7432V25.4167C64.5575 26.1329 64.7485 26.7137 65.1304 27.1593C65.5283 27.6049 66.0455 27.8277 66.6821 27.8277H68.5679C69.1567 27.8277 69.6262 27.6129 69.9763 27.1832C70.3423 26.7535 70.5253 26.1965 70.5253 25.5122H73.2228C73.2228 26.9127 72.7931 28.0426 71.9337 28.9019C71.0903 29.7613 69.9683 30.191 68.5679 30.191H66.6582ZM78.397 30.191C76.9329 30.191 75.7553 29.7692 74.8641 28.9258C73.9888 28.0823 73.5512 26.9684 73.5512 25.5838V22.5761C73.5512 21.653 73.7501 20.8414 74.148 20.1412C74.5458 19.4251 75.1108 18.876 75.8428 18.4941C76.5749 18.0962 77.4183 17.8973 78.3732 17.8973H80.2829C81.6515 17.8973 82.7496 18.2952 83.5771 19.0909C84.4205 19.8707 84.8423 20.9051 84.8423 22.1941H82.1448C82.1448 21.6212 81.9698 21.1597 81.6196 20.8096C81.2855 20.4436 80.8399 20.2606 80.2829 20.2606H78.397C77.7764 20.2606 77.2671 20.4913 76.8693 20.9528C76.4873 21.4143 76.2964 22.0111 76.2964 22.7432V25.4167C76.2964 26.1329 76.4873 26.7137 76.8693 27.1593C77.2671 27.6049 77.7843 27.8277 78.4209 27.8277H80.3067C80.8956 27.8277 81.365 27.6129 81.7151 27.1832C82.0812 26.7535 82.2642 26.1965 82.2642 25.5122H84.9616C84.9616 26.9127 84.5319 28.0426 83.6726 28.9019C82.8291 29.7613 81.7072 30.191 80.3067 30.191H78.397ZM87.5578 16.7515C87.0167 16.7515 86.5791 16.5923 86.2449 16.2741C85.9266 15.9399 85.7675 15.5181 85.7675 15.0089C85.7675 14.4996 85.9266 14.0859 86.2449 13.7676C86.5791 13.4334 87.0167 13.2663 87.5578 13.2663C88.0989 13.2663 88.5365 13.4334 88.8707 13.7676C89.2049 14.0859 89.372 14.4996 89.372 15.0089C89.372 15.5181 89.2049 15.9399 88.8707 16.2741C88.5365 16.5923 88.0989 16.7515 87.5578 16.7515ZM86.1971 18.0883H88.9423V30H86.1971V18.0883ZM95.3946 30.191C93.9305 30.191 92.7529 29.7692 91.8617 28.9258C90.9705 28.0664 90.5249 26.9365 90.5249 25.5361V22.5761C90.5249 21.653 90.7238 20.8414 91.1217 20.1412C91.5355 19.4251 92.1084 18.876 92.8404 18.4941C93.5884 18.0962 94.4477 17.8973 95.4185 17.8973H97.5192C98.4899 17.8973 99.3413 18.0962 100.073 18.4941C100.821 18.876 101.394 19.4251 101.792 20.1412C102.206 20.8414 102.413 21.653 102.413 22.5761V25.5361C102.413 26.9365 101.959 28.0664 101.052 28.9258C100.161 29.7692 98.9674 30.191 97.4714 30.191H95.3946ZM97.4476 27.8277C98.1159 27.8277 98.6491 27.6049 99.0469 27.1593C99.4607 26.6978 99.6676 26.101 99.6676 25.369V22.7193C99.6676 21.9872 99.4686 21.3984 99.0708 20.9528C98.6729 20.4913 98.1398 20.2606 97.4714 20.2606H95.4662C94.7979 20.2606 94.2647 20.4913 93.8669 20.9528C93.469 21.3984 93.2701 21.9872 93.2701 22.7193V25.369C93.2701 26.101 93.469 26.6978 93.8669 27.1593C94.2647 27.6049 94.7819 27.8277 95.4185 27.8277H97.4476ZM107.711 30.191C106.692 30.191 105.793 29.9523 105.013 29.4748C104.233 28.9815 103.629 28.2972 103.199 27.4219C102.769 26.5307 102.554 25.5122 102.554 24.3664H105.3C105.3 25.3849 105.522 26.2045 105.968 26.8251C106.414 27.4299 106.995 27.7322 107.711 27.7322H109.62C110.352 27.7322 110.933 27.414 111.363 26.7774C111.809 26.1249 112.031 25.2576 112.031 24.1754V13.2902H114.824V24.2709C114.824 25.4645 114.609 26.5068 114.18 27.398C113.766 28.2892 113.169 28.9815 112.389 29.4748C111.626 29.9523 110.734 30.191 109.716 30.191H107.711ZM120.737 30.191C119.273 30.191 118.096 29.7692 117.204 28.9258C116.313 28.0664 115.868 26.9365 115.868 25.5361V22.5761C115.868 21.653 116.066 20.8414 116.464 20.1412C116.878 19.4251 117.451 18.876 118.183 18.4941C118.931 18.0962 119.79 17.8973 120.761 17.8973H122.862C123.833 17.8973 124.684 18.0962 125.416 18.4941C126.164 18.876 126.737 19.4251 127.135 20.1412C127.548 20.8414 127.755 21.653 127.755 22.5761V25.5361C127.755 26.9365 127.302 28.0664 126.395 28.9258C125.504 29.7692 124.31 30.191 122.814 30.191H120.737ZM122.79 27.8277C123.459 27.8277 123.992 27.6049 124.39 27.1593C124.803 26.6978 125.01 26.101 125.01 25.369V22.7193C125.01 21.9872 124.811 21.3984 124.413 20.9528C124.016 20.4913 123.482 20.2606 122.814 20.2606H120.809C120.14 20.2606 119.607 20.4913 119.209 20.9528C118.812 21.3984 118.613 21.9872 118.613 22.7193V25.369C118.613 26.101 118.812 26.6978 119.209 27.1593C119.607 27.6049 120.125 27.8277 120.761 27.8277H122.79ZM134.295 30.191C133.785 30.191 133.26 30.0318 132.719 29.7135C132.194 29.3793 131.772 28.9656 131.454 28.4722V30H128.9V13.2902H131.645V19.1864C131.963 18.7885 132.369 18.4782 132.862 18.2554C133.356 18.0167 133.849 17.8973 134.342 17.8973H136.013C136.889 17.8973 137.668 18.0962 138.353 18.4941C139.037 18.876 139.57 19.4171 139.952 20.1173C140.334 20.8175 140.525 21.6212 140.525 22.5283V25.369C140.525 26.3238 140.334 27.1673 139.952 27.8993C139.57 28.6314 139.029 29.1963 138.329 29.5942C137.645 29.992 136.857 30.191 135.966 30.191H134.295ZM135.679 27.78C136.3 27.78 136.809 27.5492 137.207 27.0877C137.605 26.6103 137.804 25.9896 137.804 25.2258V22.6954C137.804 21.9793 137.613 21.4064 137.231 20.9767C136.849 20.5311 136.355 20.3083 135.751 20.3083H134.223C133.523 20.3083 132.934 20.5629 132.457 21.0722C131.979 21.5655 131.709 22.218 131.645 23.0296V25.369C131.724 26.0692 131.995 26.6501 132.457 27.1116C132.934 27.5572 133.483 27.78 134.104 27.78H135.679Z" fill="#13335F"/>
</svg>
